<mxfile host="app.diagrams.net" modified="2023-10-30T23:50:34.041Z" agent="Mozilla/5.0 (Macintosh; Intel Mac OS X 10_15_7) AppleWebKit/537.36 (KHTML, like Gecko) Chrome/118.0.0.0 Safari/537.36" etag="FXzu5r1gXP1qfwowDRyU" version="22.0.8" type="github">
  <diagram name="Page-1" id="7xt4pQumDP3tBfooaIeJ">
    <mxGraphModel dx="1687" dy="929" grid="1" gridSize="10" guides="1" tooltips="1" connect="1" arrows="1" fold="1" page="1" pageScale="1" pageWidth="1100" pageHeight="850" math="0" shadow="0">
      <root>
        <mxCell id="0" />
        <mxCell id="1" parent="0" />
        <mxCell id="5_k-YT-q-z1sVr0RyAKI-33" value="" style="whiteSpace=wrap;html=1;shape=mxgraph.basic.cloud_rect" vertex="1" parent="1">
          <mxGeometry x="30" y="70" width="1040" height="750" as="geometry" />
        </mxCell>
        <mxCell id="5_k-YT-q-z1sVr0RyAKI-8" value="Azure Cloud" style="text;html=1;align=center;verticalAlign=middle;resizable=0;points=[];autosize=1;strokeColor=none;fillColor=none;" vertex="1" parent="1">
          <mxGeometry x="80" y="24.5" width="90" height="30" as="geometry" />
        </mxCell>
        <mxCell id="5_k-YT-q-z1sVr0RyAKI-10" value="" style="image;aspect=fixed;html=1;points=[];align=center;fontSize=12;image=img/lib/azure2/compute/Cloud_Services_Classic.svg;" vertex="1" parent="1">
          <mxGeometry x="20.000000000000007" y="19" width="56.77" height="41" as="geometry" />
        </mxCell>
        <mxCell id="5_k-YT-q-z1sVr0RyAKI-32" value="VPC" style="points=[[0,0],[0.25,0],[0.5,0],[0.75,0],[1,0],[1,0.25],[1,0.5],[1,0.75],[1,1],[0.75,1],[0.5,1],[0.25,1],[0,1],[0,0.75],[0,0.5],[0,0.25]];outlineConnect=0;gradientColor=none;html=1;whiteSpace=wrap;fontSize=12;fontStyle=0;container=1;pointerEvents=0;collapsible=0;recursiveResize=0;shape=mxgraph.aws4.group;grIcon=mxgraph.aws4.group_vpc;strokeColor=#248814;fillColor=none;verticalAlign=top;align=left;spacingLeft=30;fontColor=#AAB7B8;dashed=0;" vertex="1" parent="1">
          <mxGeometry x="90" y="120" width="840" height="640" as="geometry" />
        </mxCell>
        <mxCell id="5_k-YT-q-z1sVr0RyAKI-34" value="Availability Zone 1" style="fillColor=none;strokeColor=#147EBA;dashed=1;verticalAlign=top;fontStyle=0;fontColor=#147EBA;whiteSpace=wrap;html=1;" vertex="1" parent="5_k-YT-q-z1sVr0RyAKI-32">
          <mxGeometry x="30" y="-30" width="350" height="700" as="geometry" />
        </mxCell>
        <mxCell id="5_k-YT-q-z1sVr0RyAKI-35" value="Availability Zone 2" style="fillColor=none;strokeColor=#147EBA;dashed=1;verticalAlign=top;fontStyle=0;fontColor=#147EBA;whiteSpace=wrap;html=1;" vertex="1" parent="5_k-YT-q-z1sVr0RyAKI-32">
          <mxGeometry x="460" y="-30" width="350" height="700" as="geometry" />
        </mxCell>
        <mxCell id="5_k-YT-q-z1sVr0RyAKI-31" value="Public subnet" style="points=[[0,0],[0.25,0],[0.5,0],[0.75,0],[1,0],[1,0.25],[1,0.5],[1,0.75],[1,1],[0.75,1],[0.5,1],[0.25,1],[0,1],[0,0.75],[0,0.5],[0,0.25]];outlineConnect=0;gradientColor=none;html=1;whiteSpace=wrap;fontSize=12;fontStyle=0;container=1;pointerEvents=0;collapsible=0;recursiveResize=0;shape=mxgraph.aws4.group;grIcon=mxgraph.aws4.group_security_group;grStroke=0;strokeColor=#248814;fillColor=#E9F3E6;verticalAlign=top;align=left;spacingLeft=30;fontColor=#248814;dashed=0;" vertex="1" parent="5_k-YT-q-z1sVr0RyAKI-32">
          <mxGeometry x="70" y="30" width="270" height="250" as="geometry" />
        </mxCell>
        <mxCell id="5_k-YT-q-z1sVr0RyAKI-37" value="Public subnet" style="points=[[0,0],[0.25,0],[0.5,0],[0.75,0],[1,0],[1,0.25],[1,0.5],[1,0.75],[1,1],[0.75,1],[0.5,1],[0.25,1],[0,1],[0,0.75],[0,0.5],[0,0.25]];outlineConnect=0;gradientColor=none;html=1;whiteSpace=wrap;fontSize=12;fontStyle=0;container=1;pointerEvents=0;collapsible=0;recursiveResize=0;shape=mxgraph.aws4.group;grIcon=mxgraph.aws4.group_security_group;grStroke=0;strokeColor=#248814;fillColor=#E9F3E6;verticalAlign=top;align=left;spacingLeft=30;fontColor=#248814;dashed=0;" vertex="1" parent="5_k-YT-q-z1sVr0RyAKI-32">
          <mxGeometry x="500" y="30" width="272" height="250" as="geometry" />
        </mxCell>
        <mxCell id="5_k-YT-q-z1sVr0RyAKI-43" value="NAT Gateway" style="text;html=1;align=center;verticalAlign=middle;resizable=0;points=[];autosize=1;strokeColor=none;fillColor=none;" vertex="1" parent="5_k-YT-q-z1sVr0RyAKI-37">
          <mxGeometry x="172" y="162" width="100" height="30" as="geometry" />
        </mxCell>
        <mxCell id="5_k-YT-q-z1sVr0RyAKI-38" value="Private subnet" style="points=[[0,0],[0.25,0],[0.5,0],[0.75,0],[1,0],[1,0.25],[1,0.5],[1,0.75],[1,1],[0.75,1],[0.5,1],[0.25,1],[0,1],[0,0.75],[0,0.5],[0,0.25]];outlineConnect=0;gradientColor=none;html=1;whiteSpace=wrap;fontSize=12;fontStyle=0;container=1;pointerEvents=0;collapsible=0;recursiveResize=0;shape=mxgraph.aws4.group;grIcon=mxgraph.aws4.group_security_group;grStroke=0;strokeColor=#147EBA;fillColor=#E6F2F8;verticalAlign=top;align=left;spacingLeft=30;fontColor=#147EBA;dashed=0;" vertex="1" parent="5_k-YT-q-z1sVr0RyAKI-32">
          <mxGeometry x="70" y="330" width="270" height="270" as="geometry" />
        </mxCell>
        <mxCell id="5_k-YT-q-z1sVr0RyAKI-39" value="Private subnet" style="points=[[0,0],[0.25,0],[0.5,0],[0.75,0],[1,0],[1,0.25],[1,0.5],[1,0.75],[1,1],[0.75,1],[0.5,1],[0.25,1],[0,1],[0,0.75],[0,0.5],[0,0.25]];outlineConnect=0;gradientColor=none;html=1;whiteSpace=wrap;fontSize=12;fontStyle=0;container=1;pointerEvents=0;collapsible=0;recursiveResize=0;shape=mxgraph.aws4.group;grIcon=mxgraph.aws4.group_security_group;grStroke=0;strokeColor=#147EBA;fillColor=#E6F2F8;verticalAlign=top;align=left;spacingLeft=30;fontColor=#147EBA;dashed=0;" vertex="1" parent="5_k-YT-q-z1sVr0RyAKI-32">
          <mxGeometry x="500" y="330" width="270" height="270" as="geometry" />
        </mxCell>
        <mxCell id="5_k-YT-q-z1sVr0RyAKI-23" value="" style="sketch=0;outlineConnect=0;fontColor=#232F3E;gradientColor=none;fillColor=#8C4FFF;strokeColor=none;dashed=0;verticalLabelPosition=bottom;verticalAlign=top;align=center;html=1;fontSize=12;fontStyle=0;aspect=fixed;pointerEvents=1;shape=mxgraph.aws4.nat_gateway;" vertex="1" parent="5_k-YT-q-z1sVr0RyAKI-32">
          <mxGeometry x="100" y="123" width="64" height="64" as="geometry" />
        </mxCell>
        <mxCell id="5_k-YT-q-z1sVr0RyAKI-40" value="NAT Gateway" style="text;html=1;align=center;verticalAlign=middle;resizable=0;points=[];autosize=1;strokeColor=none;fillColor=none;" vertex="1" parent="5_k-YT-q-z1sVr0RyAKI-32">
          <mxGeometry x="82" y="190" width="100" height="30" as="geometry" />
        </mxCell>
        <mxCell id="5_k-YT-q-z1sVr0RyAKI-42" value="" style="sketch=0;outlineConnect=0;fontColor=#232F3E;gradientColor=none;fillColor=#8C4FFF;strokeColor=none;dashed=0;verticalLabelPosition=bottom;verticalAlign=top;align=center;html=1;fontSize=12;fontStyle=0;aspect=fixed;pointerEvents=1;shape=mxgraph.aws4.nat_gateway;" vertex="1" parent="5_k-YT-q-z1sVr0RyAKI-32">
          <mxGeometry x="690" y="128" width="64" height="64" as="geometry" />
        </mxCell>
        <mxCell id="5_k-YT-q-z1sVr0RyAKI-44" value="" style="rounded=0;whiteSpace=wrap;html=1;" vertex="1" parent="5_k-YT-q-z1sVr0RyAKI-32">
          <mxGeometry x="210" y="80" width="450" height="140" as="geometry" />
        </mxCell>
        <mxCell id="5_k-YT-q-z1sVr0RyAKI-41" value="" style="sketch=0;outlineConnect=0;fontColor=#232F3E;gradientColor=none;fillColor=#ED7100;strokeColor=none;dashed=0;verticalLabelPosition=bottom;verticalAlign=top;align=center;html=1;fontSize=12;fontStyle=0;aspect=fixed;pointerEvents=1;shape=mxgraph.aws4.auto_scaling2;" vertex="1" parent="5_k-YT-q-z1sVr0RyAKI-32">
          <mxGeometry x="396" y="80" width="48" height="48" as="geometry" />
        </mxCell>
        <mxCell id="5_k-YT-q-z1sVr0RyAKI-60" value="Auto Scaling group" style="text;html=1;align=center;verticalAlign=middle;resizable=0;points=[];autosize=1;strokeColor=none;fillColor=none;" vertex="1" parent="5_k-YT-q-z1sVr0RyAKI-32">
          <mxGeometry x="365" y="128" width="120" height="30" as="geometry" />
        </mxCell>
        <mxCell id="5_k-YT-q-z1sVr0RyAKI-61" value="Security group" style="fillColor=none;strokeColor=#DD3522;verticalAlign=top;fontStyle=0;fontColor=#DD3522;whiteSpace=wrap;html=1;" vertex="1" parent="5_k-YT-q-z1sVr0RyAKI-32">
          <mxGeometry x="160" y="390" width="530" height="170" as="geometry" />
        </mxCell>
        <mxCell id="5_k-YT-q-z1sVr0RyAKI-62" value="" style="shape=cylinder3;whiteSpace=wrap;html=1;boundedLbl=1;backgroundOutline=1;size=15;" vertex="1" parent="5_k-YT-q-z1sVr0RyAKI-32">
          <mxGeometry x="200" y="400" width="40" height="60" as="geometry" />
        </mxCell>
        <mxCell id="5_k-YT-q-z1sVr0RyAKI-63" value="" style="shape=cylinder3;whiteSpace=wrap;html=1;boundedLbl=1;backgroundOutline=1;size=15;" vertex="1" parent="5_k-YT-q-z1sVr0RyAKI-32">
          <mxGeometry x="200" y="480" width="40" height="60" as="geometry" />
        </mxCell>
        <mxCell id="5_k-YT-q-z1sVr0RyAKI-64" value="" style="image;aspect=fixed;html=1;points=[];align=center;fontSize=12;image=img/lib/azure2/databases/Azure_Cosmos_DB.svg;" vertex="1" parent="5_k-YT-q-z1sVr0RyAKI-32">
          <mxGeometry x="388" y="443" width="64" height="64" as="geometry" />
        </mxCell>
        <mxCell id="5_k-YT-q-z1sVr0RyAKI-65" value="" style="strokeWidth=2;html=1;shape=mxgraph.flowchart.annotation_2;align=left;labelPosition=right;pointerEvents=1;rotation=-180;" vertex="1" parent="5_k-YT-q-z1sVr0RyAKI-32">
          <mxGeometry x="260" y="425" width="130" height="100" as="geometry" />
        </mxCell>
        <mxCell id="5_k-YT-q-z1sVr0RyAKI-66" value="" style="endArrow=classic;html=1;rounded=0;strokeColor=#000000;strokeWidth=2;" edge="1" parent="5_k-YT-q-z1sVr0RyAKI-32">
          <mxGeometry width="50" height="50" relative="1" as="geometry">
            <mxPoint x="452" y="475" as="sourcePoint" />
            <mxPoint x="570" y="475" as="targetPoint" />
          </mxGeometry>
        </mxCell>
        <mxCell id="5_k-YT-q-z1sVr0RyAKI-67" value="Azure Cosmos DB" style="text;html=1;align=center;verticalAlign=middle;resizable=0;points=[];autosize=1;strokeColor=none;fillColor=none;" vertex="1" parent="5_k-YT-q-z1sVr0RyAKI-32">
          <mxGeometry x="360" y="510" width="120" height="30" as="geometry" />
        </mxCell>
        <mxCell id="5_k-YT-q-z1sVr0RyAKI-68" value="" style="shape=cylinder3;whiteSpace=wrap;html=1;boundedLbl=1;backgroundOutline=1;size=15;" vertex="1" parent="5_k-YT-q-z1sVr0RyAKI-32">
          <mxGeometry x="590" y="445" width="40" height="60" as="geometry" />
        </mxCell>
        <mxCell id="5_k-YT-q-z1sVr0RyAKI-69" value="" style="sketch=0;pointerEvents=1;shadow=0;dashed=0;html=1;strokeColor=none;fillColor=#434445;aspect=fixed;labelPosition=center;verticalLabelPosition=bottom;verticalAlign=top;align=center;outlineConnect=0;shape=mxgraph.vvd.cpu;" vertex="1" parent="5_k-YT-q-z1sVr0RyAKI-32">
          <mxGeometry x="260" y="115" width="70" height="70" as="geometry" />
        </mxCell>
        <mxCell id="5_k-YT-q-z1sVr0RyAKI-70" value="" style="sketch=0;pointerEvents=1;shadow=0;dashed=0;html=1;strokeColor=none;fillColor=#434445;aspect=fixed;labelPosition=center;verticalLabelPosition=bottom;verticalAlign=top;align=center;outlineConnect=0;shape=mxgraph.vvd.cpu;" vertex="1" parent="5_k-YT-q-z1sVr0RyAKI-32">
          <mxGeometry x="540" y="115" width="70" height="70" as="geometry" />
        </mxCell>
        <mxCell id="5_k-YT-q-z1sVr0RyAKI-71" value="Bastion Host" style="text;html=1;align=center;verticalAlign=middle;resizable=0;points=[];autosize=1;strokeColor=none;fillColor=none;" vertex="1" parent="5_k-YT-q-z1sVr0RyAKI-32">
          <mxGeometry x="250" y="185" width="90" height="30" as="geometry" />
        </mxCell>
        <mxCell id="5_k-YT-q-z1sVr0RyAKI-72" value="Bastion Host" style="text;html=1;align=center;verticalAlign=middle;resizable=0;points=[];autosize=1;strokeColor=none;fillColor=none;" vertex="1" parent="5_k-YT-q-z1sVr0RyAKI-32">
          <mxGeometry x="530" y="185" width="90" height="30" as="geometry" />
        </mxCell>
      </root>
    </mxGraphModel>
  </diagram>
</mxfile>
